/* XPM */
static char * logo_online_xpm[] = {
"24 24 279 2",
"  	c None",
". 	c #3D1F1F",
"+ 	c #4D2727",
"@ 	c #532B2B",
"# 	c #4C2928",
"$ 	c #472725",
"% 	c #2D1A1A",
"& 	c #442122",
"* 	c #663333",
"= 	c #804041",
"- 	c #884343",
"; 	c #894444",
"> 	c #723638",
", 	c #8C674C",
"' 	c #82594B",
") 	c #884445",
"! 	c #703737",
"~ 	c #4A2525",
"{ 	c #492727",
"] 	c #804040",
"^ 	c #844242",
"/ 	c #834242",
"( 	c #7F3F3F",
"_ 	c #6D3636",
": 	c #4B2825",
"< 	c #B07C55",
"[ 	c #613931",
"} 	c #793C3C",
"| 	c #AA5353",
"1 	c #974A4A",
"2 	c #683435",
"3 	c #3C1F20",
"4 	c #803F40",
"5 	c #864242",
"6 	c #904242",
"7 	c #8C4141",
"8 	c #7E3F3F",
"9 	c #643132",
"0 	c #58372C",
"a 	c #996548",
"b 	c #4F2628",
"c 	c #5E2F2F",
"d 	c #974A4B",
"e 	c #BB5A5A",
"f 	c #A85251",
"g 	c #743A3B",
"h 	c #693435",
"i 	c #874242",
"j 	c #9D4848",
"k 	c #AD4E4E",
"l 	c #994040",
"m 	c #8E4040",
"n 	c #663232",
"o 	c #5D392D",
"p 	c #7F503A",
"q 	c #452223",
"r 	c #452323",
"s 	c #9E4848",
"t 	c #C85C5C",
"u 	c #C65B5B",
"v 	c #A55151",
"w 	c #673334",
"x 	c #3B1D1E",
"y 	c #864343",
"z 	c #924141",
"A 	c #AB4F4F",
"B 	c #CC5F5F",
"C 	c #CF5B5B",
"D 	c #B14747",
"E 	c #692C2D",
"F 	c #351E19",
"G 	c #653F2E",
"H 	c #221112",
"I 	c #763636",
"J 	c #C25454",
"K 	c #D25D5D",
"L 	c #D65E5E",
"M 	c #B65757",
"N 	c #934747",
"O 	c #432022",
"P 	c #6D3737",
"Q 	c #894242",
"R 	c #914040",
"S 	c #B15050",
"T 	c #DD6666",
"U 	c #DC6A6A",
"V 	c #D96464",
"W 	c #BC5050",
"X 	c #7B3738",
"Y 	c #5B2B2C",
"Z 	c #8D4141",
"` 	c #C85656",
" .	c #DE6C6C",
"..	c #E89898",
"+.	c #EA9D9D",
"@.	c #C15757",
"#.	c #954545",
"$.	c #7C3D3D",
"%.	c #261516",
"&.	c #8A4242",
"*.	c #924040",
"=.	c #B64E4E",
"-.	c #DD6363",
";.	c #DC6868",
">.	c #E17B7B",
",.	c #E58585",
"'.	c #DD6E6E",
").	c #D76868",
"!.	c #E17979",
"~.	c #E48080",
"{.	c #E79999",
"].	c #ECAEAE",
"^.	c #E07272",
"/.	c #BE5454",
"(.	c #8E4141",
"_.	c #884444",
":.	c #361B1B",
"<.	c #412324",
"[.	c #874343",
"}.	c #B64848",
"|.	c #D25B5B",
"1.	c #DB6363",
"2.	c #DB6565",
"3.	c #DF7474",
"4.	c #E99F9F",
"5.	c #E99E9E",
"6.	c #DE6F6F",
"7.	c #DC6969",
"8.	c #DB6666",
"9.	c #DB6262",
"0.	c #D86262",
"a.	c #A94444",
"b.	c #8B4141",
"c.	c #522828",
"d.	c #522D2D",
"e.	c #783E3E",
"f.	c #A94545",
"g.	c #C54C4C",
"h.	c #D55B5B",
"i.	c #DA6262",
"j.	c #DA5F5F",
"k.	c #D85F5F",
"l.	c #C64C4C",
"m.	c #984141",
"n.	c #8B4242",
"o.	c #7B3F3F",
"p.	c #4F2A2A",
"q.	c #5C3131",
"r.	c #6C3A3A",
"s.	c #854040",
"t.	c #934141",
"u.	c #984242",
"v.	c #BC4949",
"w.	c #CB4B4B",
"x.	c #CF5252",
"y.	c #D55A5A",
"z.	c #D85E5E",
"A.	c #D96161",
"B.	c #D86060",
"C.	c #D65D5D",
"D.	c #D25555",
"E.	c #CE4E4E",
"F.	c #AE4646",
"G.	c #6D3B3B",
"H.	c #522C2C",
"I.	c #552D2D",
"J.	c #6A3A3A",
"K.	c #733B3B",
"L.	c #934040",
"M.	c #A14444",
"N.	c #C84C4C",
"O.	c #CC4C4C",
"P.	c #CC4D4D",
"Q.	c #CC4E4E",
"R.	c #CD4E4E",
"S.	c #C54B4B",
"T.	c #9A4242",
"U.	c #753C3C",
"V.	c #693737",
"W.	c #482828",
"X.	c #432222",
"Y.	c #6C3B3B",
"Z.	c #673939",
"`.	c #853B3B",
" +	c #944040",
".+	c #A24444",
"++	c #C94C4C",
"@+	c #CB4D4D",
"#+	c #AC4646",
"$+	c #954141",
"%+	c #8B3E3E",
"&+	c #683636",
"*+	c #351D1D",
"=+	c #693A3A",
"-+	c #6E3838",
";+	c #8D3B3B",
">+	c #903D3D",
",+	c #923F3F",
"'+	c #9E4343",
")+	c #BA4848",
"!+	c #C44A4A",
"~+	c #C74C4C",
"{+	c #C44B4B",
"]+	c #A64444",
"^+	c #964141",
"/+	c #933F3F",
"(+	c #753939",
"_+	c #693939",
":+	c #613131",
"<+	c #472424",
"[+	c #793939",
"}+	c #8E3A3A",
"|+	c #8C3A3A",
"1+	c #8F3C3C",
"2+	c #964040",
"3+	c #A04242",
"4+	c #944141",
"5+	c #893A3A",
"6+	c #6A3737",
"7+	c #3A1D1D",
"8+	c #5D3131",
"9+	c #693838",
"0+	c #6A3939",
"a+	c #803939",
"b+	c #8D3A3A",
"c+	c #8D3939",
"d+	c #8B3939",
"e+	c #8E3B3B",
"f+	c #913D3D",
"g+	c #743939",
"h+	c #5B2E2E",
"i+	c #331C1C",
"j+	c #603131",
"k+	c #643333",
"l+	c #683535",
"m+	c #773535",
"n+	c #863737",
"o+	c #8C3939",
"p+	c #8A3838",
"q+	c #793737",
"r+	c #653232",
"s+	c #3B1E1E",
"t+	c #2D1919",
"u+	c #623333",
"v+	c #5E3030",
"w+	c #683333",
"x+	c #703131",
"y+	c #7C3232",
"z+	c #803232",
"A+	c #813232",
"B+	c #6D3232",
"C+	c #653333",
"D+	c #6A3535",
"E+	c #331A1A",
"F+	c #281515",
"G+	c #552C2C",
"H+	c #562C2C",
"I+	c #5F3030",
"J+	c #633232",
"K+	c #603232",
"L+	c #5E3131",
"M+	c #572E2E",
"N+	c #271313",
"O+	c #211212",
"P+	c #472525",
"Q+	c #502828",
"R+	c #512929",
"S+	c #502929",
"T+	c #5C2F2F",
"U+	c #522929",
"V+	c #1D0E0E",
"W+	c #080404",
"X+	c #2B1616",
"Y+	c #5A2D2D",
"Z+	c #592D2D",
"`+	c #4F2828",
" @	c #331919",
".@	c #070404",
"+@	c #000000",
"                  . + @ # $ %                   ",
"            & * = - ; > , ' ) ! ~               ",
"          { ] ^ / ( _ : < [ } | 1 2             ",
"        3 4 5 6 7 8 9 0 a b c d e f g           ",
"        h i j k l m n o p q r s t u v w         ",
"      x y z A B C D E F G H I J K L M N O       ",
"      P Q R S T U V W X Y Z `  ...+.@.#.$.      ",
"    %.; &.*.=.-.;.>.,.'.).!.~.{.].^./.(._.:.    ",
"    <.[.&.*.}.|.1.2.3.4.5.6.7.8.9.0.a.b.y c.    ",
"    d.e.&.*.f.g.h.i.i.j.j.i.1.i.k.l.m.n.o.p.    ",
"    q.r.s.t.u.v.w.x.y.z.A.B.C.D.E.F.*.s.G.H.    ",
"    I.J.K.*.L.M.N.O.P.Q.R.R.P.O.S.T.*.U.V.W.    ",
"    X.Y.Z.`. +*..+++P.P.P.P.@+g.#+$+%+Z.&+*+    ",
"      r.=+-+;+>+,+'+)+!+~+{+}.]+^+/+(+_+:+      ",
"      <+r._+[+}+|+1+2+3+3+m.$+4+,+5+=+6+7+      ",
"        8+9+0+a+b+c+d+e+L.L. +f+|+g+&+h+        ",
"        i+j+k+l+m+n+o+}+b+e+b+p+q+* r+s+        ",
"          t+u+v+* w+x+y+z+A+y+B+C+D+E+          ",
"            F+G+H+I+J+K+K+L+M+h+J+N+            ",
"              O+P+G+Q+R+R+S+T+U+V+              ",
"                W+X+Y+v+Z+`+ @.@                ",
"                    +@+@+@                      ",
"                                                ",
"                                                "};
