/* XPM */
static char * logo_xpm[] = {
"24 24 321 2",
"  	c None",
". 	c #524E47",
"+ 	c #636058",
"@ 	c #57544D",
"# 	c #46433F",
"$ 	c #77736B",
"% 	c #77726A",
"& 	c #726E65",
"* 	c #7D796F",
"= 	c #979385",
"- 	c #56524B",
"; 	c #726E64",
"> 	c #6B685F",
", 	c #635F58",
"' 	c #9F9990",
") 	c #7B776C",
"! 	c #615D56",
"~ 	c #807C6F",
"{ 	c #69655C",
"] 	c #A19C90",
"^ 	c #2D2A28",
"/ 	c #55514D",
"( 	c #777369",
"_ 	c #524F49",
": 	c #8B877C",
"< 	c #64625A",
"[ 	c #908B83",
"} 	c #767169",
"| 	c #46453F",
"1 	c #383734",
"2 	c #53514F",
"3 	c #5D5B58",
"4 	c #AFA99C",
"5 	c #575552",
"6 	c #525252",
"7 	c #44433F",
"8 	c #928D82",
"9 	c #B3ADA1",
"0 	c #B1AC9F",
"a 	c #6C6761",
"b 	c #7B766E",
"c 	c #9B958A",
"d 	c #201F1E",
"e 	c #535353",
"f 	c #585856",
"g 	c #676460",
"h 	c #AEAA9D",
"i 	c #969187",
"j 	c #6E6C68",
"k 	c #9D988D",
"l 	c #BAB5A7",
"m 	c #938E83",
"n 	c #67635B",
"o 	c #807B71",
"p 	c #979187",
"q 	c #B8B3A6",
"r 	c #A8A498",
"s 	c #9F9B90",
"t 	c #948F88",
"u 	c #959187",
"v 	c #8F8B81",
"w 	c #757167",
"x 	c #4B4843",
"y 	c #979387",
"z 	c #B3AD9F",
"A 	c #625E56",
"B 	c #4C4A45",
"C 	c #706A61",
"D 	c #88847A",
"E 	c #B3ADA2",
"F 	c #BBB5A9",
"G 	c #C1BBAF",
"H 	c #C4BDB0",
"I 	c #C8C1B5",
"J 	c #BEB7A9",
"K 	c #4C4A46",
"L 	c #4E4946",
"M 	c #464441",
"N 	c #66635D",
"O 	c #5B5751",
"P 	c #585755",
"Q 	c #646463",
"R 	c #8F8A80",
"S 	c #8A857C",
"T 	c #54514B",
"U 	c #5D5A54",
"V 	c #6B6861",
"W 	c #747068",
"X 	c #A8A297",
"Y 	c #5E5D58",
"Z 	c #423B3B",
"` 	c #7D5A5F",
" .	c #79625F",
"..	c #837C73",
"+.	c #A19F95",
"@.	c #94928B",
"#.	c #9A958C",
"$.	c #979286",
"%.	c #615D57",
"&.	c #525251",
"*.	c #555452",
"=.	c #575550",
"-.	c #BCB6AA",
";.	c #64625B",
">.	c #5E3B51",
",.	c #C58C91",
"'.	c #B17B84",
").	c #866C64",
"!.	c #C9C4B7",
"~.	c #CEC7BA",
"{.	c #A19C92",
"].	c #827E76",
"^.	c #47443E",
"/.	c #3E3C37",
"(.	c #575655",
"_.	c #706F6E",
":.	c #76746E",
"<.	c #ACA69A",
"[.	c #89857B",
"}.	c #463B42",
"|.	c #865472",
"1.	c #C8908E",
"2.	c #C38094",
"3.	c #96606B",
"4.	c #725D5C",
"5.	c #C1BAAF",
"6.	c #7D7973",
"7.	c #6D6963",
"8.	c #373635",
"9.	c #85827C",
"0.	c #C2BBAE",
"a.	c #6E6C67",
"b.	c #6F6F6D",
"c.	c #6C6561",
"d.	c #4A304D",
"e.	c #875075",
"f.	c #B87F7F",
"g.	c #C1808E",
"h.	c #B26F85",
"i.	c #895E69",
"j.	c #4B3F3D",
"k.	c #47453F",
"l.	c #B6AFA5",
"m.	c #D4CEC0",
"n.	c #615E59",
"o.	c #656462",
"p.	c #858484",
"q.	c #77746D",
"r.	c #5F545A",
"s.	c #593B58",
"t.	c #77466A",
"u.	c #B67E7D",
"v.	c #CA938A",
"w.	c #B97D82",
"x.	c #895C5E",
"y.	c #45423E",
"z.	c #7A756C",
"A.	c #BBB6AB",
"B.	c #D5CFC3",
"C.	c #ACA79C",
"D.	c #242322",
"E.	c #414040",
"F.	c #454443",
"G.	c #5F5D59",
"H.	c #857979",
"I.	c #4B394D",
"J.	c #5F3F5A",
"K.	c #6F4165",
"L.	c #BB8D8A",
"M.	c #A66D7B",
"N.	c #955779",
"O.	c #412736",
"P.	c #78746A",
"Q.	c #B1ACA1",
"R.	c #C2BDB1",
"S.	c #8E8A82",
"T.	c #56534F",
"U.	c #54514D",
"V.	c #7E7B75",
"W.	c #7E7472",
"X.	c #5D3D53",
"Y.	c #6C4B63",
"Z.	c #5C3C5E",
"`.	c #6C4161",
" +	c #8F5B6E",
".+	c #7A4668",
"++	c #4D3147",
"@+	c #262420",
"#+	c #89847A",
"$+	c #908B7E",
"%+	c #6E6B62",
"&+	c #88857D",
"*+	c #AFAB9F",
"=+	c #BDB8AB",
"-+	c #BCB7AC",
";+	c #5F5155",
">+	c #443644",
",+	c #6B4362",
"'+	c #704865",
")+	c #613D5C",
"!+	c #6D435D",
"~+	c #734363",
"{+	c #673D64",
"]+	c #181216",
"^+	c #272524",
"/+	c #7F7C72",
"(+	c #A49F92",
"_+	c #7D786F",
":+	c #68645C",
"<+	c #63605B",
"[+	c #452F3B",
"}+	c #4D3F4E",
"|+	c #4C3F51",
"1+	c #60405A",
"2+	c #68425B",
"3+	c #623D5B",
"4+	c #6C4563",
"5+	c #754C64",
"6+	c #402839",
"7+	c #4C4B45",
"8+	c #736F66",
"9+	c #68645E",
"0+	c #574E4C",
"a+	c #2F2528",
"b+	c #593D4E",
"c+	c #4E3E51",
"d+	c #583E57",
"e+	c #5F3F58",
"f+	c #68415C",
"g+	c #67405E",
"h+	c #684163",
"i+	c #794F69",
"j+	c #70475C",
"k+	c #31202A",
"l+	c #251922",
"m+	c #634057",
"n+	c #6D4862",
"o+	c #251A24",
"p+	c #514050",
"q+	c #5A3F58",
"r+	c #684156",
"s+	c #6E435F",
"t+	c #6F4166",
"u+	c #6A3F67",
"v+	c #643D60",
"w+	c #774C6C",
"x+	c #764E66",
"y+	c #563B51",
"z+	c #5B3956",
"A+	c #41263B",
"B+	c #59364C",
"C+	c #6E426E",
"D+	c #724A6A",
"E+	c #4F364F",
"F+	c #3A2F3E",
"G+	c #4A3C4F",
"H+	c #604355",
"I+	c #724C5D",
"J+	c #774E63",
"K+	c #684260",
"L+	c #5E405B",
"M+	c #624061",
"N+	c #513D54",
"O+	c #6D495C",
"P+	c #6A4262",
"Q+	c #804573",
"R+	c #613752",
"S+	c #51313D",
"T+	c #874E77",
"U+	c #7E4D6C",
"V+	c #684069",
"W+	c #523C59",
"X+	c #4A3D4D",
"Y+	c #493D4C",
"Z+	c #573D5C",
"`+	c #573F55",
" @	c #6B4258",
".@	c #7F4A67",
"+@	c #744468",
"@@	c #69415D",
"#@	c #6D415F",
"$@	c #8E5275",
"%@	c #674548",
"&@	c #573542",
"*@	c #965979",
"=@	c #834971",
"-@	c #6E4068",
";@	c #613F59",
">@	c #5C3F58",
",@	c #5D3E5B",
"'@	c #623C5A",
")@	c #6A415C",
"!@	c #7B475E",
"~@	c #8F5373",
"{@	c #A96982",
"]@	c #A0637F",
"^@	c #8B4F78",
"/@	c #7B4E5A",
"(@	c #221715",
"_@	c #201315",
":@	c #684050",
"<@	c #844F6A",
"[@	c #7D4E64",
"}@	c #724767",
"|@	c #734668",
"1@	c #724666",
"2@	c #7A4863",
"3@	c #7D465F",
"4@	c #8C546F",
"5@	c #9D6B6C",
"6@	c #634C42",
"7@	c #26191B",
"8@	c #150D10",
"9@	c #442A31",
"0@	c #553644",
"a@	c #53364A",
"b@	c #503549",
"c@	c #4E3442",
"d@	c #412737",
"e@	c #36222C",
"f@	c #080306",
"              . + @ #                           ",
"        $ % & * = - ; > ,                       ",
"      ' ) ! ~ { ] ^ / ( _ : <                   ",
"    [ } | 1 2 3 4 5 6 7 8 9 0 a                 ",
"  b c d   e f g h i j k l m n o                 ",
"  p q r s t u v w x y z A B C ! D               ",
"  E F G H I J K L M N O P Q     R               ",
"  S T U V W X Y Z `  ...+.@.    #.              ",
"  u $.%.&.*.=.-.;.>.,.'.).k !.~.{.              ",
"  ].^./.(._.:.<.[.}.|.1.2.3.4.5.6.              ",
"  7.    8.9.0.a.b.c.d.e.f.g.h.i.j.              ",
"  k.l.    m.n.o.p.q.r.s.t.u.v.w.x.              ",
"  y.z.A.B.C.D.E.F.G.H.I.J.K.L.M.N.O.            ",
"    P.: Q.R.S.T.U.V.W.X.Y.Z.`. +.+++            ",
"    @+#+$+%+&+*+=+-+;+>+,+'+)+!+~+{+]+          ",
"      ^+/+(+_+:+<+/ [+}+|+1+2+3+4+5+6+          ",
"          7+8+9+0+a+b+c+d+e+f+g+h+i+j+k+        ",
"            l+m+n+o+p+q+r+s+t+u+v+w+x+y+z+A+    ",
"            B+C+D+E+F+G+H+I+J+K+L+M+N+O+P+Q+R+  ",
"            S+T+U+V+W+X+Y+p+Z+`+ @.@+@@@#@$@%@  ",
"              &@*@=@-@;@>@,@'@)@!@~@{@]@^@/@(@  ",
"                _@:@<@[@}@|@1@2@3@4@5@6@7@      ",
"                    8@9@0@a@b@c@d@e@f@          ",
"                                                "};
