/* XPM */
static char * logo_offline_xpm[] = {
"24 24 312 2",
"  	c None",
". 	c #265308",
"+ 	c #35690B",
"@ 	c #39710C",
"# 	c #33680D",
"$ 	c #2E610B",
"% 	c #194106",
"& 	c #2F5C0A",
"* 	c #49890F",
"= 	c #5DAC14",
"- 	c #66B615",
"; 	c #67B816",
"> 	c #509B10",
", 	c #6FA830",
"' 	c #65A22C",
") 	c #69B617",
"! 	c #599412",
"~ 	c #306609",
"{ 	c #30650A",
"] 	c #5FAC14",
"^ 	c #61B115",
"/ 	c #61B015",
"( 	c #5BAB13",
"_ 	c #3F960D",
": 	c #256A06",
"< 	c #92D630",
"[ 	c #3B840F",
"} 	c #52A511",
"| 	c #A9D32B",
"1 	c #89C121",
"2 	c #498D10",
"3 	c #5EAC14",
"4 	c #67B315",
"5 	c #80BC17",
"6 	c #76B816",
"7 	c #5BAA13",
"8 	c #338D0B",
"9 	c #377311",
"0 	c #74C41D",
"a 	c #267008",
"b 	c #2F8409",
"c 	c #86C220",
"d 	c #C7DD37",
"e 	c #A3D02A",
"f 	c #559B12",
"g 	c #4B8E10",
"h 	c #68B415",
"i 	c #98C81F",
"j 	c #B5D229",
"k 	c #9BC616",
"l 	c #80B916",
"m 	c #378E0C",
"n 	c #3B7B0F",
"o 	c #5AA911",
"p 	c #1A6305",
"q 	c #186405",
"r 	c #95C71E",
"s 	c #D8D846",
"t 	c #D7D944",
"u 	c #A0CF28",
"v 	c #4A8B10",
"w 	c #265108",
"x 	c #62B315",
"y 	c #84BD15",
"z 	c #B0D129",
"A 	c #DDD94E",
"B 	c #DCCD4B",
"C 	c #CCD21E",
"D 	c #5B8A0C",
"E 	c #1B4904",
"F 	c #45880C",
"G 	c #033301",
"H 	c #669E0F",
"I 	c #D9D53A",
"J 	c #DFD152",
"K 	c #E0CE54",
"L 	c #C0D935",
"M 	c #7EC01B",
"N 	c #2D5A09",
"O 	c #4D9410",
"P 	c #6DB615",
"Q 	c #85BD15",
"R 	c #B6CE2F",
"S 	c #E3CE62",
"T 	c #DFCF67",
"U 	c #E1CF5B",
"V 	c #C9D233",
"W 	c #6E9A18",
"X 	c #447610",
"Y 	c #7BB11B",
"Z 	c #D5CE41",
"` 	c #E3CF67",
" .	c #EBDE95",
"..	c #EBE09A",
"+.	c #D3D93F",
"@.	c #85C11B",
"#.	c #59A613",
"$.	c #143605",
"%.	c #66B715",
"&.	c #70B616",
"*.	c #86BD16",
"=.	c #C6D02D",
"-.	c #E3CC5F",
";.	c #E0CF63",
">.	c #E4D677",
",.	c #E8D882",
"'.	c #E4D765",
").	c #E1D759",
"!.	c #E8D972",
"~.	c #E6D77C",
"{.	c #EADF96",
"].	c #EEE5AB",
"^.	c #E4D16E",
"/.	c #D4D838",
"(.	c #7CBB15",
"_.	c #65B715",
":.	c #234B07",
"<.	c #235D08",
"[.	c #64B415",
"}.	c #72B615",
"|.	c #85BD16",
"1.	c #D5D323",
"2.	c #E1CE4D",
"3.	c #E0CC5D",
"4.	c #E1CD5F",
"5.	c #E3D26F",
"6.	c #EDE19B",
"7.	c #ECE19A",
"8.	c #E2D06A",
"9.	c #E2CF63",
"0.	c #E1CE60",
"a.	c #E0CC5C",
"b.	c #E1CE59",
"c.	c #C3D41A",
"d.	c #74B715",
"e.	c #386F0C",
"f.	c #2D750A",
"g.	c #4FA512",
"h.	c #71B716",
"i.	c #86BE16",
"j.	c #B9CB1D",
"k.	c #E6CB2D",
"l.	c #E2C94E",
"m.	c #E1CC5B",
"n.	c #E0CB59",
"o.	c #E0CD5D",
"p.	c #E1CD5C",
"q.	c #E2CA55",
"r.	c #E3C930",
"s.	c #99C517",
"t.	c #72B716",
"u.	c #55A913",
"v.	c #277108",
"w.	c #32820B",
"x.	c #3D980E",
"y.	c #68B114",
"z.	c #88BE17",
"A.	c #94C218",
"B.	c #DCCF26",
"C.	c #E6C231",
"D.	c #E4C53E",
"E.	c #E2C94C",
"F.	c #E1CB55",
"G.	c #E1CC59",
"H.	c #E1CC57",
"I.	c #E2CA51",
"J.	c #E4C645",
"K.	c #E9C236",
"L.	c #BDC522",
"M.	c #85BE16",
"N.	c #69B114",
"O.	c #40990E",
"P.	c #277709",
"Q.	c #30780B",
"R.	c #3B970E",
"S.	c #499E10",
"T.	c #87BD16",
"U.	c #89BE16",
"V.	c #AACA1A",
"W.	c #E5C730",
"X.	c #E5C133",
"Y.	c #E5C234",
"Z.	c #E5C236",
"`.	c #E5C337",
" +	c #E5C237",
".+	c #E5C235",
"++	c #E6C133",
"@+	c #E4CA2C",
"#+	c #96C218",
"$+	c #87BE16",
"%+	c #4DA110",
"&+	c #3B940D",
"*+	c #226708",
"=+	c #285C08",
"-+	c #3C990E",
";+	c #36940D",
">+	c #70AF12",
",+	c #8CBF16",
"'+	c #A9C71B",
")+	c #E3C331",
"!+	c #E6C234",
"~+	c #E6C134",
"{+	c #E6C233",
"]+	c #E4C92D",
"^+	c #C1CD1F",
"/+	c #8DC017",
"(+	c #7BB614",
"_+	c #37940D",
":+	c #39920C",
"<+	c #194C07",
"[+	c #3F980F",
"}+	c #39950D",
"|+	c #43990E",
"1+	c #83B712",
"2+	c #86BB14",
"3+	c #87BD15",
"4+	c #9FC51A",
"5+	c #D5CD26",
"6+	c #E6C82F",
"7+	c #DEC52F",
"8+	c #CCC926",
"9+	c #B4CB1C",
"0+	c #90C117",
"a+	c #89BD15",
"b+	c #52A00F",
"c+	c #3A950D",
"d+	c #33880B",
"e+	c #2A6209",
"f+	c #58A40F",
"g+	c #85B811",
"h+	c #82B611",
"i+	c #83B812",
"j+	c #92C116",
"k+	c #A8C81A",
"l+	c #A6C71A",
"m+	c #92C018",
"n+	c #8ABF17",
"o+	c #78B311",
"p+	c #1C5105",
"q+	c #33820B",
"r+	c #3B950D",
"s+	c #3C960D",
"t+	c #68AB0F",
"u+	c #82B711",
"v+	c #82B710",
"w+	c #80B510",
"x+	c #82B812",
"y+	c #8ABF16",
"z+	c #87BC13",
"A+	c #4D9E0E",
"B+	c #3A920D",
"C+	c #2F800A",
"D+	c #194A06",
"E+	c #31870B",
"F+	c #358C0C",
"G+	c #3B920D",
"H+	c #5AA00E",
"I+	c #76AE0F",
"J+	c #81B510",
"K+	c #83B811",
"L+	c #81B710",
"M+	c #84B811",
"N+	c #81B711",
"O+	c #7EB310",
"P+	c #5CA20E",
"Q+	c #388F0C",
"R+	c #368D0B",
"S+	c #1C5406",
"T+	c #134205",
"U+	c #318B0B",
"V+	c #2F860A",
"W+	c #3C8F0C",
"X+	c #4E970C",
"Y+	c #66A20D",
"Z+	c #6DA60D",
"`+	c #6EA60D",
" @	c #64A20C",
".@	c #47950C",
"+@	c #368D0C",
"@@	c #39940C",
"#@	c #174905",
"$@	c #123904",
"%@	c #277A08",
"&@	c #277B08",
"*@	c #30860A",
"=@	c #338A0B",
"-@	c #2F870B",
";@	c #30880B",
">@	c #2D850A",
",@	c #277D09",
"'@	c #2C820A",
")@	c #358A0B",
"!@	c #123704",
"~@	c #0E3003",
"{@	c #1F6606",
"]@	c #247B07",
"^@	c #207305",
"/@	c #227506",
"(@	c #227505",
"_@	c #217406",
":@	c #2B8409",
"<@	c #2A7309",
"[@	c #0D2903",
"}@	c #040C01",
"|@	c #133E04",
"1@	c #2B7F09",
"2@	c #2D8409",
"3@	c #297F08",
"4@	c #194805",
"5@	c #030A00",
"6@	c #000000",
"7@	c #000100",
"                  . + @ # $ %                   ",
"            & * = - ; > , ' ) ! ~               ",
"          { ] ^ / ( _ : < [ } | 1 2             ",
"        . 3 4 5 6 7 8 9 0 a b c d e f           ",
"        g h i j k l m n o p q r s t u v         ",
"      w x y z A B C D E F G H I J K L M N       ",
"      O P Q R S T U V W X Y Z `  ...+.@.#.      ",
"    $.%.&.*.=.-.;.>.,.'.).!.~.{.].^./.(._.:.    ",
"    <.[.}.|.1.2.3.4.5.6.7.8.9.0.a.b.c.d.[.e.    ",
"    f.g.h.i.j.k.l.m.a.n.n.a.o.p.q.r.s.t.u.v.    ",
"    w.x.y.z.A.B.C.D.E.F.G.H.I.J.K.L.M.N.O.P.    ",
"    Q.R.S.T.U.V.W.X.Y.Z.`. +.+++@+#+$+%+&+*+    ",
"    =+-+;+>+,+i.'+)+!+~+~+~+{+]+^+/+(+_+:+<+    ",
"      [+}+|+1+2+3+4+5+@+6+7+8+9+0+a+b+c+d+      ",
"      e+-+}+f+g+h+i+j+k+l+m+/+n+a+o+}+c+p+      ",
"        q+r+s+t+u+v+w+x+U.U.y+z+h+A+B+C+        ",
"        D+E+F+G+H+I+J+K+L+M+N+O+P+Q+R+S+        ",
"          T+U+V+m W+X+Y+Z+`+ @.@+@@@#@          ",
"            $@%@&@*@=@-@;@>@,@'@)@!@            ",
"              ~@{@]@^@/@(@_@:@<@[@              ",
"                }@|@1@2@3@a 4@5@                ",
"                    6@7@6@                      ",
"                                                ",
"                                                "};
